<?xml version="1.0" standalone="no"?>
<!DOCTYPE svg PUBLIC "-//W3C//DTD SVG 20010904//EN"
 "http://www.w3.org/TR/2001/REC-SVG-20010904/DTD/svg10.dtd">
<svg version="1.0" xmlns="http://www.w3.org/2000/svg"
 width="240.000000pt" height="240.000000pt" viewBox="0 0 240.000000 240.000000"
 preserveAspectRatio="xMidYMid meet">

<g transform="translate(0.000000,240.000000) scale(0.100000,-0.100000)"
fill="#000000" stroke="none">
<path d="M1110 2184 c-14 -9 -56 -47 -95 -85 -38 -38 -92 -84 -120 -102 -59
-40 -104 -113 -105 -170 0 -21 -11 -59 -24 -85 -13 -26 -31 -76 -40 -112 -9
-36 -21 -69 -26 -74 -6 -6 -10 -30 -10 -55 0 -28 -8 -59 -20 -79 -26 -42 -25
-45 9 -82 24 -27 29 -42 34 -112 6 -78 27 -126 48 -112 5 3 9 0 9 -5 0 -6 -4
-11 -10 -11 -5 0 -10 -12 -10 -26 0 -17 -4 -23 -12 -18 -7 4 -4 -3 7 -15 11
-13 27 -20 37 -18 15 4 17 0 12 -37 -7 -47 17 -128 88 -296 53 -125 138 -278
161 -288 4 -2 7 -12 7 -23 0 -10 4 -19 9 -19 5 0 11 -9 14 -20 8 -31 -66 -80
-184 -124 -54 -20 -101 -36 -104 -36 -14 0 -63 64 -59 75 3 7 -3 18 -12 26
-16 13 -17 12 -9 -16 4 -16 11 -48 15 -70 3 -22 12 -51 19 -65 16 -30 81 -100
94 -100 5 0 15 -7 23 -15 13 -12 51 -15 220 -15 178 0 204 2 204 16 0 8 -5 12
-10 9 -7 -4 -9 3 -6 19 9 48 17 66 32 66 8 0 14 5 14 11 0 6 -7 9 -15 5 -21
-8 -19 2 13 54 28 46 52 62 52 34 0 -10 -6 -14 -15 -10 -12 4 -13 2 -2 -15 10
-16 9 -21 -3 -29 -8 -5 -10 -10 -4 -10 14 0 46 35 39 42 -3 3 3 8 15 11 11 3
23 1 26 -4 3 -5 0 -9 -6 -9 -6 0 -8 -4 -5 -10 3 -5 -18 -42 -48 -82 -29 -40
-56 -79 -61 -85 -5 -10 8 -13 57 -13 56 0 68 3 91 26 14 15 26 32 25 38 -4 34
17 61 43 57 4 0 5 6 1 15 -5 13 -8 13 -15 2 -7 -9 -8 -7 -3 7 4 11 8 28 9 37
1 10 11 26 21 38 10 11 13 20 8 20 -18 0 -23 53 -7 71 19 21 18 26 -7 32 -12
3 -18 10 -14 17 4 6 -1 20 -11 31 -10 11 -19 29 -21 40 -2 12 -28 70 -58 131
l-55 110 28 27 c110 110 161 185 177 261 14 71 13 71 39 45 25 -25 56 -25 76
-1 10 13 60 177 60 199 0 6 9 30 21 52 18 35 19 44 9 70 -17 40 -19 76 -6 97
7 12 7 31 -2 63 -7 25 -12 64 -12 87 0 23 -6 49 -13 57 -8 9 -21 37 -31 63
-11 29 -44 77 -85 122 -53 58 -72 88 -86 133 -10 32 -29 71 -43 86 -27 28
-186 128 -232 145 -54 20 -124 23 -150 6z m106 -761 c-11 -11 -19 6 -11 24 8
17 8 17 12 0 3 -10 2 -21 -1 -24z m51 2 l-6 -35 52 0 c68 0 43 -19 -28 -21
-27 -1 -42 -3 -32 -6 26 -7 10 -23 -24 -23 -29 0 -40 14 -16 23 11 5 -28 8
-133 12 -19 1 -55 -7 -79 -17 -35 -15 -41 -16 -31 -3 10 12 9 15 -6 15 -43 0
-65 -12 -59 -31 8 -25 -7 -24 -23 1 -7 11 -9 19 -5 18 5 -1 18 3 30 10 12 7
48 16 80 21 32 5 68 12 81 15 13 3 20 1 17 -5 -4 -5 24 -9 69 -9 71 0 76 1 76
21 0 18 24 47 39 49 2 0 1 -16 -2 -35z m31 -4 c-15 -5 -21 7 -13 26 7 17 8 17
15 -2 4 -11 3 -22 -2 -24z m32 27 c0 -10 2 -10 8 -1 6 10 12 10 28 -2 11 -9
14 -15 7 -16 -45 -5 -58 -2 -61 14 -2 9 1 17 7 17 6 0 11 -6 11 -12z m-140 -8
c0 -5 -4 -10 -10 -10 -5 0 -10 5 -10 10 0 6 5 10 10 10 6 0 10 -4 10 -10z
m-201 -26 c-8 -10 -14 -11 -24 -1 -15 14 0 28 22 20 10 -4 11 -9 2 -19z m501
-4 c13 -9 13 -10 0 -10 -8 0 -22 5 -30 10 -13 9 -13 10 0 10 8 0 22 -5 30 -10z
m-724 -75 c-3 -8 -2 -14 2 -14 22 4 28 -4 29 -36 1 -41 -16 -42 -34 -1 -16 35
-17 66 -2 66 6 0 9 -7 5 -15z m481 -13 c15 -10 27 -158 13 -167 -5 -3 0 -21
11 -40 12 -19 25 -33 29 -30 13 8 33 -23 26 -41 -5 -13 -9 -14 -20 -4 -11 9
-20 8 -38 -4 -31 -20 -136 -8 -158 19 -13 16 -3 43 21 56 13 6 19 21 19 42 0
52 11 79 29 74 11 -2 17 3 18 17 7 76 20 97 50 78z m-363 -55 c-11 -6 -22 -14
-25 -19 -3 -6 -9 -3 -12 6 -4 10 -1 16 9 16 8 0 13 4 10 9 -4 5 3 7 15 4 20
-6 20 -6 3 -16z m66 -19 c0 -4 13 -14 30 -23 33 -17 87 -20 123 -6 22 9 25 7
30 -15 5 -28 -10 -47 -53 -69 -23 -12 -39 -13 -84 -4 -39 7 -62 7 -76 -1 -16
-9 -20 -8 -20 6 0 13 -3 14 -15 4 -23 -19 -32 35 -11 71 9 16 14 29 9 29 -4 0
-3 4 4 8 14 9 63 9 63 0z m-80 -27 c0 -5 -7 -11 -15 -15 -15 -5 -20 5 -8 17 9
10 23 9 23 -2z m670 -21 c0 -5 -5 -10 -11 -10 -5 0 -7 5 -4 10 3 6 8 10 11 10
2 0 4 -4 4 -10z m-770 -62 c0 -5 -7 -8 -15 -8 -15 0 -20 21 -8 33 7 7 23 -11
23 -25z m680 23 c0 5 7 9 16 9 10 0 14 -6 10 -15 -3 -8 0 -15 7 -15 7 0 3 -6
-8 -12 -11 -6 -26 -18 -32 -26 -12 -14 -14 -14 -25 1 -7 9 -26 21 -41 26 -23
9 -26 13 -15 24 8 10 24 11 50 7 21 -4 38 -3 38 1z m-683 -103 c-3 -8 -6 -5
-6 6 -1 11 2 17 5 13 3 -3 4 -12 1 -19z m373 -148 c0 -5 -5 -10 -11 -10 -5 0
-7 5 -4 10 3 6 8 10 11 10 2 0 4 -4 4 -10z m-30 -45 c32 -16 38 -25 18 -25
-14 0 -68 39 -55 40 4 0 21 -7 37 -15z m-35 -35 c3 -5 2 -10 -4 -10 -5 0 -13
5 -16 10 -3 6 -2 10 4 10 5 0 13 -4 16 -10z m-45 -37 c0 -15 2 -16 10 -3 8 13
10 13 10 -2 0 -15 37 -30 80 -32 8 -1 21 -13 30 -29 13 -24 13 -29 0 -37 -21
-13 -107 -4 -135 14 -29 19 -45 84 -24 97 21 13 29 11 29 -8z m-20 -594 c0
-15 -6 -20 -22 -17 -13 2 -23 10 -23 18 0 8 6 14 13 13 6 -2 12 2 12 8 0 5 5
7 10 4 6 -3 10 -15 10 -26z"/>
<path d="M895 1209 c-3 -4 2 -6 10 -5 21 3 28 13 10 13 -9 0 -18 -4 -20 -8z"/>
<path d="M710 724 c1 -17 47 -66 53 -57 4 6 -7 23 -23 38 -17 16 -30 25 -30
19z"/>
<path d="M661 590 c0 -8 4 -24 9 -35 5 -13 9 -14 9 -5 0 8 -4 24 -9 35 -5 13
-9 14 -9 5z"/>
<path d="M540 530 c-13 -8 -13 -10 2 -10 9 0 20 5 23 10 8 13 -5 13 -25 0z"/>
<path d="M2356 467 c-38 -21 -58 -47 -37 -47 20 0 81 42 81 56 0 17 3 18 -44
-9z"/>
<path d="M5 379 c-4 -6 -5 -13 -2 -16 7 -7 27 6 27 18 0 12 -17 12 -25 -2z"/>
<path d="M159 377 c-33 -25 -52 -84 -23 -73 16 6 63 -36 74 -66 2 -7 5 -61 5
-120 0 -59 3 -109 6 -113 15 -14 31 30 30 82 0 35 4 60 12 65 9 5 6 19 -12 51
-16 30 -22 53 -18 73 13 69 13 69 -20 78 -18 6 -34 15 -35 22 -2 10 -7 10 -19
1z"/>
<path d="M1583 310 c4 -16 9 -59 13 -95 4 -36 11 -65 16 -65 6 0 7 24 3 58
-11 106 -17 132 -27 132 -6 0 -8 -12 -5 -30z"/>
<path d="M2192 298 c-27 -44 -53 -136 -41 -143 5 -4 13 4 18 17 9 25 49 126
58 146 11 26 -16 10 -35 -20z"/>
<path d="M535 240 c-3 -5 -1 -10 4 -10 6 0 11 5 11 10 0 6 -2 10 -4 10 -3 0
-8 -4 -11 -10z"/>
<path d="M650 213 c0 -12 5 -34 11 -50 8 -21 12 -24 19 -14 9 15 4 35 -17 66
-13 19 -13 19 -13 -2z"/>
<path d="M422 103 c2 -32 -3 -48 -20 -66 -12 -13 -22 -26 -22 -30 0 -4 29 -7
65 -7 43 0 65 4 65 12 0 21 -24 78 -33 78 -4 0 -5 -4 -2 -10 3 -5 2 -10 -4
-10 -9 0 -25 18 -26 30 0 3 -6 14 -13 25 -11 18 -12 15 -10 -22z"/>
<path d="M1583 63 c-19 -40 -16 -63 7 -63 17 0 20 7 20 45 0 51 -9 57 -27 18z"/>
<path d="M1515 26 c-32 -10 -36 -15 -22 -21 24 -10 67 2 67 20 0 8 -1 15 -2
14 -2 0 -21 -6 -43 -13z"/>
</g>
</svg>
